<?xml version="1.0" standalone="no"?>
<!DOCTYPE svg PUBLIC "-//W3C//DTD SVG 20010904//EN"
 "http://www.w3.org/TR/2001/REC-SVG-20010904/DTD/svg10.dtd">
<svg version="1.0" xmlns="http://www.w3.org/2000/svg"
 width="1024.000000pt" height="1024.000000pt" viewBox="0 0 1024.000000 1024.000000"
 preserveAspectRatio="xMidYMid meet">

<g transform="translate(0.000000,1024.000000) scale(0.100000,-0.100000)"
fill="#000000" stroke="none">
<path d="M4045 9584 c-341 -61 -520 -208 -656 -540 -77 -189 -201 -637 -345
-1252 -40 -174 -77 -319 -81 -323 -4 -4 -53 -17 -108 -28 -459 -98 -774 -221
-883 -346 -57 -65 -77 -113 -76 -190 0 -175 142 -302 451 -404 136 -46 517
-151 545 -151 36 0 17 -17 -26 -23 -142 -20 -263 -115 -307 -242 -21 -63 -24
-86 -23 -225 1 -300 83 -595 230 -822 83 -128 162 -198 262 -227 l55 -16 32
-120 c89 -324 235 -630 419 -880 l51 -69 0 -201 c0 -215 -10 -286 -50 -365
-31 -60 -87 -112 -160 -148 -56 -28 -119 -51 -485 -182 -233 -83 -658 -245
-750 -285 -492 -217 -802 -543 -944 -995 -66 -209 -99 -424 -77 -493 52 -157
499 -269 1401 -352 1518 -139 4293 -123 5545 31 522 64 909 162 1011 256 54
49 62 93 45 228 -77 592 -367 1002 -898 1268 -187 95 -520 222 -1098 422 -304
105 -372 145 -422 244 -38 76 -52 178 -53 389 l0 187 55 75 c175 236 331 567
410 869 l32 119 39 12 c194 58 357 290 449 637 51 195 77 451 56 563 -15 82
-63 175 -112 220 -53 48 -152 94 -218 102 -29 3 -48 9 -44 14 4 4 117 37 251
73 305 83 372 106 502 168 174 84 270 198 270 323 0 123 -88 228 -261 313
-139 68 -307 124 -584 192 l-230 57 -23 99 c-145 614 -291 1163 -364 1373
-105 301 -225 458 -421 555 -249 123 -492 135 -927 46 -375 -77 -448 -77 -830
0 -309 63 -485 74 -655 44z m1690 -1694 c315 -22 606 -58 835 -100 143 -27
331 -70 352 -81 17 -9 58 -127 58 -168 0 -17 -5 -21 -17 -17 -89 26 -457 83
-718 111 -918 97 -2137 59 -2860 -89 -65 -14 -121 -23 -124 -20 -7 7 31 152
44 170 15 21 236 74 465 113 276 46 553 74 930 95 128 7 888 -3 1035 -14z m20
-840 c453 -33 971 -114 1298 -201 l37 -10 0 -257 c0 -141 -5 -328 -11 -415
-11 -147 -11 -158 6 -177 28 -30 63 -24 139 25 104 67 157 60 203 -28 44 -83
17 -352 -57 -577 -47 -144 -89 -229 -143 -287 -60 -66 -86 -76 -167 -68 -109
11 -121 -1 -150 -158 -167 -877 -792 -1537 -1567 -1653 -147 -22 -439 -14
-565 15 -677 157 -1192 689 -1411 1461 -13 47 -30 117 -37 155 -28 162 -54
191 -155 180 -80 -8 -117 7 -174 71 -81 92 -165 316 -201 536 -33 206 -25 298
32 363 44 51 84 48 174 -10 77 -50 109 -55 143 -24 20 19 22 28 17 83 -3 33
-8 219 -12 413 l-6 352 53 16 c30 8 153 36 274 60 331 67 709 115 1060 135
105 6 217 12 250 14 114 7 830 -3 970 -14z m-1720 -3743 c310 -215 703 -337
1085 -337 399 0 808 143 1162 407 54 40 100 73 101 73 2 0 5 -26 6 -57 5 -137
38 -270 95 -378 30 -58 133 -172 189 -211 l29 -20 -79 -89 c-264 -299 -676
-533 -1082 -614 -224 -45 -576 -53 -787 -17 -342 58 -637 184 -899 385 -80 61
-238 213 -291 280 l-43 54 44 29 c160 106 265 311 282 550 l6 87 51 -43 c28
-24 87 -68 131 -99z"/>
<path d="M4551 5184 c-36 -8 -103 -33 -150 -55 -73 -36 -101 -58 -212 -167
-144 -141 -175 -163 -267 -188 -56 -15 -72 -16 -125 -5 -85 18 -132 44 -204
116 l-63 63 0 -44 c0 -75 30 -184 73 -269 119 -232 397 -375 732 -376 275 0
522 91 733 269 l53 45 42 -40 c99 -95 229 -170 372 -216 149 -47 182 -52 370
-51 152 0 192 4 260 22 217 59 394 194 474 362 44 90 71 195 71 273 l0 48 -32
-38 c-113 -130 -236 -186 -361 -164 -101 18 -152 50 -272 172 -60 61 -129 124
-153 141 -146 101 -333 140 -503 104 -82 -18 -148 -51 -222 -111 l-57 -46 -48
41 c-126 112 -322 155 -511 114z"/>
</g>
</svg>
