<?xml version="1.0" standalone="no"?>
<!DOCTYPE svg PUBLIC "-//W3C//DTD SVG 20010904//EN"
 "http://www.w3.org/TR/2001/REC-SVG-20010904/DTD/svg10.dtd">
<svg version="1.0" xmlns="http://www.w3.org/2000/svg"
 width="1024.000000pt" height="1024.000000pt" viewBox="0 0 1024.000000 1024.000000"
 preserveAspectRatio="xMidYMid meet">

<g transform="translate(0.000000,1024.000000) scale(0.100000,-0.100000)"
fill="currentColor" stroke="none">
<path d="M5010 9124 c-232 -19 -381 -48 -570 -110 -666 -218 -1164 -763 -1314
-1435 -82 -371 -72 -765 29 -1135 19 -66 49 -160 68 -208 l35 -87 -44 -41
c-111 -102 -156 -338 -95 -499 30 -79 93 -174 160 -239 80 -78 198 -136 366
-179 35 -9 44 -17 67 -63 41 -85 113 -172 273 -334 162 -164 255 -233 435
-324 207 -104 387 -149 630 -157 273 -9 478 33 716 146 206 99 299 168 477
359 148 158 214 240 247 310 21 45 27 50 74 62 178 45 303 120 399 241 103
129 136 212 137 344 0 135 -44 256 -119 330 l-41 41 29 74 c200 515 213 1120
34 1600 -240 645 -770 1105 -1446 1254 -166 37 -424 60 -547 50z m288 -295
c675 -74 1233 -510 1451 -1131 76 -218 113 -517 93 -760 -22 -285 -78 -486
-211 -766 -45 -93 -81 -176 -81 -185 0 -21 38 -47 70 -47 14 0 39 9 55 20 43
29 81 26 116 -9 23 -23 29 -38 29 -71 0 -99 -67 -145 -210 -144 -145 1 -201
37 -366 236 -180 217 -309 317 -491 381 -112 39 -254 48 -353 23 -94 -23 -198
-78 -249 -130 l-44 -45 -54 49 c-99 91 -234 140 -383 140 -103 0 -188 -19
-285 -64 -154 -71 -248 -152 -427 -367 -111 -133 -144 -163 -214 -196 -97 -44
-242 -40 -316 10 -70 48 -73 156 -5 198 36 22 67 19 105 -12 14 -10 37 -19 51
-19 32 0 71 26 71 47 0 9 -36 90 -79 182 -135 283 -191 485 -213 769 -25 318
37 667 167 938 125 260 351 510 614 679 104 67 297 157 428 199 102 33 281 70
378 79 89 8 261 6 353 -4z m-110 -3267 c243 -245 583 -392 904 -392 62 0 108
-4 106 -9 -1 -5 -34 -42 -73 -83 -248 -260 -481 -395 -789 -459 -86 -18 -125
-20 -266 -16 -144 4 -180 9 -285 36 -204 54 -431 178 -590 323 -80 73 -195
192 -195 201 0 4 48 7 106 7 244 0 526 99 746 262 79 59 228 202 228 220 0 16
12 6 108 -90z"/>
<path d="M3480 4621 c-992 -388 -1463 -789 -1675 -1424 -81 -241 -105 -459
-105 -931 0 -269 3 -324 20 -406 58 -284 274 -502 585 -592 l80 -23 2675 -3
c2337 -2 2686 0 2761 13 273 47 504 209 613 428 76 152 78 175 73 682 -4 505
-13 579 -93 823 -54 166 -114 289 -214 440 -216 326 -582 604 -1105 838 -223
99 -554 226 -574 219 -10 -3 -72 -63 -139 -134 -183 -194 -324 -301 -527 -400
-472 -231 -1002 -233 -1480 -6 -224 105 -351 198 -547 396 -80 82 -152 149
-160 149 -7 0 -92 -31 -188 -69z m215 -332 c303 -306 757 -519 1207 -568 343
-38 747 32 1063 183 204 97 365 210 541 379 l94 89 63 -23 c247 -91 539 -227
734 -343 460 -273 724 -631 820 -1111 16 -79 18 -147 18 -545 l0 -455 -36 -75
c-65 -134 -167 -221 -326 -277 l-78 -28 -2658 -3 c-2945 -2 -2731 -7 -2875 64
-92 45 -189 134 -230 212 -61 114 -65 152 -59 592 5 339 8 411 26 505 41 223
135 450 262 630 79 111 256 290 367 370 113 82 359 222 520 296 167 77 432
187 452 188 9 1 51 -35 95 -80z"/>
</g>
</svg>
